# xmcd
#
# Track frame offsets:
#	150
#	24660
#	43268
#	63505
#	81405
#	102510
#	125813
#	144925
#	166708
#	186680
#
# Disc length: 2793 seconds
#
# Revision: 10
# Processed by: cddbd v1.5.2PL0 Copyright (c) Steve Scherf et al.
# Submitted via: audiograbber 1.80.04
#
DISCID=940ae70a
DTITLE=Roberto Carlos - Roberto Carlos
DYEAR=1992
DGENRE=MPB
TTITLE0=Voce É Minha
TTITLE1=Mulher Pequena
TTITLE2=De Coração
TTITLE3=Você Como Vai? (E Tu Come Stai?)
TTITLE4=Dito e Feito
TTITLE5=Herói Calado
TTITLE6=Eu Preciso Desse Amor
TTITLE7=Você Mexeu Com A Minha Vida
TTITLE8=Dizem Que Um Homem Não Deve Chorar
TTITLE9=Una En Un Millón
EXTD=
EXTT0=
EXTT1=
EXTT2=
EXTT3=
EXTT4=
EXTT5=
EXTT6=
EXTT7=
EXTT8=
EXTT9=
PLAYORDER=
